<mxfile host="app.diagrams.net" modified="2023-07-26T09:11:05.452Z" agent="Mozilla/5.0 (Windows NT 10.0; Win64; x64) AppleWebKit/537.36 (KHTML, like Gecko) Chrome/115.0.0.0 Safari/537.36" etag="4LI8Kxt2J2VJmGmBQhz6" version="21.1.5" type="device" pages="3">
  <diagram id="CG8hgKfetOpZ8C8cHR8X" name="IFRS17">
    <mxGraphModel dx="968" dy="804" grid="1" gridSize="10" guides="1" tooltips="1" connect="1" arrows="1" fold="1" page="1" pageScale="1" pageWidth="850" pageHeight="1100" math="0" shadow="0">
      <root>
        <mxCell id="0" />
        <mxCell id="1" parent="0" />
        <mxCell id="qREa5pG5kP2X39tpr9Gg-14" value="PvLocked" style="swimlane;fontStyle=1;align=center;verticalAlign=top;childLayout=stackLayout;horizontal=1;startSize=26;horizontalStack=0;resizeParent=1;resizeParentMax=0;resizeLast=0;collapsible=1;marginBottom=0;" parent="1" vertex="1">
          <mxGeometry x="50" y="400" width="160" height="86" as="geometry" />
        </mxCell>
        <mxCell id="qREa5pG5kP2X39tpr9Gg-15" value="+ field: type" style="text;strokeColor=none;fillColor=none;align=left;verticalAlign=top;spacingLeft=4;spacingRight=4;overflow=hidden;rotatable=0;points=[[0,0.5],[1,0.5]];portConstraint=eastwest;" parent="qREa5pG5kP2X39tpr9Gg-14" vertex="1">
          <mxGeometry y="26" width="160" height="26" as="geometry" />
        </mxCell>
        <mxCell id="qREa5pG5kP2X39tpr9Gg-16" value="" style="line;strokeWidth=1;fillColor=none;align=left;verticalAlign=middle;spacingTop=-1;spacingLeft=3;spacingRight=3;rotatable=0;labelPosition=right;points=[];portConstraint=eastwest;strokeColor=inherit;" parent="qREa5pG5kP2X39tpr9Gg-14" vertex="1">
          <mxGeometry y="52" width="160" height="8" as="geometry" />
        </mxCell>
        <mxCell id="qREa5pG5kP2X39tpr9Gg-17" value="PresentValues" style="text;strokeColor=none;fillColor=none;align=left;verticalAlign=top;spacingLeft=4;spacingRight=4;overflow=hidden;rotatable=0;points=[[0,0.5],[1,0.5]];portConstraint=eastwest;" parent="qREa5pG5kP2X39tpr9Gg-14" vertex="1">
          <mxGeometry y="60" width="160" height="26" as="geometry" />
        </mxCell>
        <mxCell id="qREa5pG5kP2X39tpr9Gg-18" value="PresentValue" style="swimlane;fontStyle=1;align=center;verticalAlign=top;childLayout=stackLayout;horizontal=1;startSize=26;horizontalStack=0;resizeParent=1;resizeParentMax=0;resizeLast=0;collapsible=1;marginBottom=0;" parent="1" vertex="1">
          <mxGeometry x="280" y="400" width="160" height="86" as="geometry" />
        </mxCell>
        <mxCell id="qREa5pG5kP2X39tpr9Gg-19" value="+ field: type" style="text;strokeColor=none;fillColor=none;align=left;verticalAlign=top;spacingLeft=4;spacingRight=4;overflow=hidden;rotatable=0;points=[[0,0.5],[1,0.5]];portConstraint=eastwest;" parent="qREa5pG5kP2X39tpr9Gg-18" vertex="1">
          <mxGeometry y="26" width="160" height="26" as="geometry" />
        </mxCell>
        <mxCell id="qREa5pG5kP2X39tpr9Gg-20" value="" style="line;strokeWidth=1;fillColor=none;align=left;verticalAlign=middle;spacingTop=-1;spacingLeft=3;spacingRight=3;rotatable=0;labelPosition=right;points=[];portConstraint=eastwest;strokeColor=inherit;" parent="qREa5pG5kP2X39tpr9Gg-18" vertex="1">
          <mxGeometry y="52" width="160" height="8" as="geometry" />
        </mxCell>
        <mxCell id="qREa5pG5kP2X39tpr9Gg-21" value="+ method(type): type" style="text;strokeColor=none;fillColor=none;align=left;verticalAlign=top;spacingLeft=4;spacingRight=4;overflow=hidden;rotatable=0;points=[[0,0.5],[1,0.5]];portConstraint=eastwest;" parent="qREa5pG5kP2X39tpr9Gg-18" vertex="1">
          <mxGeometry y="60" width="160" height="26" as="geometry" />
        </mxCell>
        <mxCell id="qREa5pG5kP2X39tpr9Gg-22" value="DiscountedCashflow" style="swimlane;fontStyle=1;align=center;verticalAlign=top;childLayout=stackLayout;horizontal=1;startSize=26;horizontalStack=0;resizeParent=1;resizeParentMax=0;resizeLast=0;collapsible=1;marginBottom=0;" parent="1" vertex="1">
          <mxGeometry x="530" y="400" width="160" height="86" as="geometry" />
        </mxCell>
        <mxCell id="qREa5pG5kP2X39tpr9Gg-23" value="+ field: type" style="text;strokeColor=none;fillColor=none;align=left;verticalAlign=top;spacingLeft=4;spacingRight=4;overflow=hidden;rotatable=0;points=[[0,0.5],[1,0.5]];portConstraint=eastwest;" parent="qREa5pG5kP2X39tpr9Gg-22" vertex="1">
          <mxGeometry y="26" width="160" height="26" as="geometry" />
        </mxCell>
        <mxCell id="qREa5pG5kP2X39tpr9Gg-24" value="" style="line;strokeWidth=1;fillColor=none;align=left;verticalAlign=middle;spacingTop=-1;spacingLeft=3;spacingRight=3;rotatable=0;labelPosition=right;points=[];portConstraint=eastwest;strokeColor=inherit;" parent="qREa5pG5kP2X39tpr9Gg-22" vertex="1">
          <mxGeometry y="52" width="160" height="8" as="geometry" />
        </mxCell>
        <mxCell id="qREa5pG5kP2X39tpr9Gg-25" value="Values" style="text;strokeColor=none;fillColor=none;align=left;verticalAlign=top;spacingLeft=4;spacingRight=4;overflow=hidden;rotatable=0;points=[[0,0.5],[1,0.5]];portConstraint=eastwest;" parent="qREa5pG5kP2X39tpr9Gg-22" vertex="1">
          <mxGeometry y="60" width="160" height="26" as="geometry" />
        </mxCell>
        <mxCell id="qREa5pG5kP2X39tpr9Gg-26" value="NominalCashflow" style="swimlane;fontStyle=1;align=center;verticalAlign=top;childLayout=stackLayout;horizontal=1;startSize=26;horizontalStack=0;resizeParent=1;resizeParentMax=0;resizeLast=0;collapsible=1;marginBottom=0;" parent="1" vertex="1">
          <mxGeometry x="760" y="400" width="160" height="86" as="geometry" />
        </mxCell>
        <mxCell id="qREa5pG5kP2X39tpr9Gg-27" value="+ field: type" style="text;strokeColor=none;fillColor=none;align=left;verticalAlign=top;spacingLeft=4;spacingRight=4;overflow=hidden;rotatable=0;points=[[0,0.5],[1,0.5]];portConstraint=eastwest;" parent="qREa5pG5kP2X39tpr9Gg-26" vertex="1">
          <mxGeometry y="26" width="160" height="26" as="geometry" />
        </mxCell>
        <mxCell id="qREa5pG5kP2X39tpr9Gg-28" value="" style="line;strokeWidth=1;fillColor=none;align=left;verticalAlign=middle;spacingTop=-1;spacingLeft=3;spacingRight=3;rotatable=0;labelPosition=right;points=[];portConstraint=eastwest;strokeColor=inherit;" parent="qREa5pG5kP2X39tpr9Gg-26" vertex="1">
          <mxGeometry y="52" width="160" height="8" as="geometry" />
        </mxCell>
        <mxCell id="qREa5pG5kP2X39tpr9Gg-29" value="Values" style="text;strokeColor=none;fillColor=none;align=left;verticalAlign=top;spacingLeft=4;spacingRight=4;overflow=hidden;rotatable=0;points=[[0,0.5],[1,0.5]];portConstraint=eastwest;" parent="qREa5pG5kP2X39tpr9Gg-26" vertex="1">
          <mxGeometry y="60" width="160" height="26" as="geometry" />
        </mxCell>
      </root>
    </mxGraphModel>
  </diagram>
  <diagram id="AIR5SBfosnVn2uBBEtKr" name="Page-1">
    <mxGraphModel dx="1707" dy="994" grid="1" gridSize="10" guides="1" tooltips="1" connect="1" arrows="1" fold="1" page="1" pageScale="1" pageWidth="850" pageHeight="1100" math="0" shadow="0">
      <root>
        <mxCell id="0" />
        <mxCell id="1" parent="0" />
        <mxCell id="UZfaCi-j7roDd5-f-pnW-1" value="IPythonConsole" style="shape=umlLifeline;perimeter=lifelinePerimeter;whiteSpace=wrap;html=1;container=1;collapsible=0;recursiveResize=0;outlineConnect=0;" parent="1" vertex="1">
          <mxGeometry x="100" y="300" width="100" height="860" as="geometry" />
        </mxCell>
        <mxCell id="UZfaCi-j7roDd5-f-pnW-4" value="" style="html=1;points=[];perimeter=orthogonalPerimeter;" parent="UZfaCi-j7roDd5-f-pnW-1" vertex="1">
          <mxGeometry x="40" y="110" width="20" height="550" as="geometry" />
        </mxCell>
        <mxCell id="UZfaCi-j7roDd5-f-pnW-5" value="create_new_client" style="html=1;verticalAlign=bottom;startArrow=oval;endArrow=block;startSize=8;rounded=0;" parent="UZfaCi-j7roDd5-f-pnW-1" target="UZfaCi-j7roDd5-f-pnW-4" edge="1">
          <mxGeometry relative="1" as="geometry">
            <mxPoint x="-50" y="110" as="sourcePoint" />
          </mxGeometry>
        </mxCell>
        <mxCell id="UZfaCi-j7roDd5-f-pnW-23" value="" style="html=1;points=[];perimeter=orthogonalPerimeter;" parent="UZfaCi-j7roDd5-f-pnW-1" vertex="1">
          <mxGeometry x="50" y="201" width="20" height="409" as="geometry" />
        </mxCell>
        <mxCell id="UZfaCi-j7roDd5-f-pnW-24" value="connect_client_to_kernel" style="edgeStyle=orthogonalEdgeStyle;html=1;align=left;spacingLeft=2;endArrow=block;rounded=0;entryX=1;entryY=0;exitX=1.006;exitY=0.127;exitDx=0;exitDy=0;exitPerimeter=0;" parent="UZfaCi-j7roDd5-f-pnW-1" source="UZfaCi-j7roDd5-f-pnW-4" target="UZfaCi-j7roDd5-f-pnW-23" edge="1">
          <mxGeometry x="-0.0979" relative="1" as="geometry">
            <mxPoint x="60" y="181" as="sourcePoint" />
            <Array as="points">
              <mxPoint x="60" y="181" />
              <mxPoint x="100" y="181" />
              <mxPoint x="100" y="201" />
            </Array>
            <mxPoint as="offset" />
          </mxGeometry>
        </mxCell>
        <mxCell id="UZfaCi-j7roDd5-f-pnW-25" value="" style="html=1;points=[];perimeter=orthogonalPerimeter;" parent="UZfaCi-j7roDd5-f-pnW-1" vertex="1">
          <mxGeometry x="60" y="230" width="20" height="350" as="geometry" />
        </mxCell>
        <mxCell id="UZfaCi-j7roDd5-f-pnW-27" value="" style="html=1;points=[];perimeter=orthogonalPerimeter;" parent="UZfaCi-j7roDd5-f-pnW-1" vertex="1">
          <mxGeometry x="70" y="280" width="20" height="70" as="geometry" />
        </mxCell>
        <mxCell id="UZfaCi-j7roDd5-f-pnW-28" value="create_kernel_spec" style="edgeStyle=orthogonalEdgeStyle;html=1;align=left;spacingLeft=2;endArrow=block;rounded=0;entryX=1;entryY=0;exitX=1.05;exitY=0.054;exitDx=0;exitDy=0;exitPerimeter=0;" parent="UZfaCi-j7roDd5-f-pnW-1" source="UZfaCi-j7roDd5-f-pnW-25" target="UZfaCi-j7roDd5-f-pnW-27" edge="1">
          <mxGeometry x="-0.2205" relative="1" as="geometry">
            <mxPoint x="65" y="280" as="sourcePoint" />
            <Array as="points">
              <mxPoint x="120" y="249" />
              <mxPoint x="120" y="280" />
            </Array>
            <mxPoint as="offset" />
          </mxGeometry>
        </mxCell>
        <mxCell id="UZfaCi-j7roDd5-f-pnW-32" value="&amp;lt;&amp;lt;create&amp;gt;&amp;gt;" style="html=1;verticalAlign=bottom;startArrow=oval;startFill=1;endArrow=block;startSize=8;rounded=0;entryX=0.002;entryY=0.066;entryDx=0;entryDy=0;entryPerimeter=0;" parent="UZfaCi-j7roDd5-f-pnW-1" target="UZfaCi-j7roDd5-f-pnW-31" edge="1">
          <mxGeometry width="60" relative="1" as="geometry">
            <mxPoint x="80" y="380" as="sourcePoint" />
            <mxPoint x="125" y="380" as="targetPoint" />
          </mxGeometry>
        </mxCell>
        <mxCell id="UZfaCi-j7roDd5-f-pnW-40" value="&amp;lt;&amp;lt;create&amp;gt;&amp;gt;" style="html=1;verticalAlign=bottom;endArrow=block;rounded=0;" parent="UZfaCi-j7roDd5-f-pnW-1" target="UZfaCi-j7roDd5-f-pnW-20" edge="1">
          <mxGeometry width="80" relative="1" as="geometry">
            <mxPoint x="90" y="314.66999999999996" as="sourcePoint" />
            <mxPoint x="250" y="315" as="targetPoint" />
          </mxGeometry>
        </mxCell>
        <mxCell id="UZfaCi-j7roDd5-f-pnW-20" value="ClientWidget" style="shape=umlLifeline;perimeter=lifelinePerimeter;whiteSpace=wrap;html=1;container=1;collapsible=0;recursiveResize=0;outlineConnect=0;size=40;" parent="1" vertex="1">
          <mxGeometry x="370" y="420" width="100" height="630" as="geometry" />
        </mxCell>
        <mxCell id="UZfaCi-j7roDd5-f-pnW-22" value="&amp;lt;&amp;lt;create&amp;gt;&amp;gt;" style="html=1;verticalAlign=bottom;startArrow=oval;startFill=1;endArrow=block;startSize=8;rounded=0;" parent="1" source="UZfaCi-j7roDd5-f-pnW-4" edge="1">
          <mxGeometry x="-0.0476" width="60" relative="1" as="geometry">
            <mxPoint x="155" y="440" as="sourcePoint" />
            <mxPoint x="370" y="440" as="targetPoint" />
            <Array as="points">
              <mxPoint x="210" y="440" />
            </Array>
            <mxPoint as="offset" />
          </mxGeometry>
        </mxCell>
        <mxCell id="UZfaCi-j7roDd5-f-pnW-29" value="SpyderKernelSpec" style="shape=umlLifeline;perimeter=lifelinePerimeter;whiteSpace=wrap;html=1;container=1;collapsible=0;recursiveResize=0;outlineConnect=0;" parent="1" vertex="1">
          <mxGeometry x="460" y="600" width="110" height="300" as="geometry" />
        </mxCell>
        <mxCell id="UZfaCi-j7roDd5-f-pnW-31" value="SpyderKernelManager" style="shape=umlLifeline;perimeter=lifelinePerimeter;whiteSpace=wrap;html=1;container=1;collapsible=0;recursiveResize=0;outlineConnect=0;" parent="1" vertex="1">
          <mxGeometry x="570" y="660" width="140" height="300" as="geometry" />
        </mxCell>
        <mxCell id="UZfaCi-j7roDd5-f-pnW-35" value="" style="html=1;points=[];perimeter=orthogonalPerimeter;" parent="UZfaCi-j7roDd5-f-pnW-31" vertex="1">
          <mxGeometry x="65" y="90" width="10" height="80" as="geometry" />
        </mxCell>
        <mxCell id="UZfaCi-j7roDd5-f-pnW-36" value="client" style="html=1;verticalAlign=bottom;endArrow=block;entryX=0;entryY=0;rounded=0;" parent="1" target="UZfaCi-j7roDd5-f-pnW-35" edge="1">
          <mxGeometry relative="1" as="geometry">
            <mxPoint x="180" y="750" as="sourcePoint" />
          </mxGeometry>
        </mxCell>
        <mxCell id="UZfaCi-j7roDd5-f-pnW-37" value="return" style="html=1;verticalAlign=bottom;endArrow=open;dashed=1;endSize=8;exitX=0;exitY=0.95;rounded=0;" parent="1" source="UZfaCi-j7roDd5-f-pnW-35" edge="1">
          <mxGeometry relative="1" as="geometry">
            <mxPoint x="180" y="826" as="targetPoint" />
          </mxGeometry>
        </mxCell>
      </root>
    </mxGraphModel>
  </diagram>
  <diagram id="gDtOAtc-P93HEjdOCd0P" name="Page-3">
    <mxGraphModel dx="1394" dy="804" grid="1" gridSize="10" guides="1" tooltips="1" connect="1" arrows="1" fold="1" page="1" pageScale="1" pageWidth="850" pageHeight="1100" math="0" shadow="0">
      <root>
        <mxCell id="0" />
        <mxCell id="1" parent="0" />
        <mxCell id="KaJSE7OLxL7kk_35rbbq-1" value="Options" style="html=1;whiteSpace=wrap;fillColor=#d5e8d4;strokeColor=#82b366;" vertex="1" parent="1">
          <mxGeometry x="140" y="360" width="110" height="50" as="geometry" />
        </mxCell>
        <mxCell id="KaJSE7OLxL7kk_35rbbq-3" value="Summary" style="html=1;whiteSpace=wrap;fillColor=#d5e8d4;strokeColor=#82b366;" vertex="1" parent="1">
          <mxGeometry x="80" y="490" width="110" height="50" as="geometry" />
        </mxCell>
        <mxCell id="KaJSE7OLxL7kk_35rbbq-78" value="" style="endArrow=diamondThin;endFill=1;endSize=15;html=1;rounded=0;edgeStyle=orthogonalEdgeStyle;entryX=0.5;entryY=1;entryDx=0;entryDy=0;exitX=0.5;exitY=0;exitDx=0;exitDy=0;" edge="1" parent="1" source="KaJSE7OLxL7kk_35rbbq-3" target="KaJSE7OLxL7kk_35rbbq-1">
          <mxGeometry width="160" relative="1" as="geometry">
            <mxPoint x="240" y="460" as="sourcePoint" />
            <mxPoint x="475" y="410" as="targetPoint" />
            <Array as="points">
              <mxPoint x="135" y="450" />
              <mxPoint x="195" y="450" />
            </Array>
          </mxGeometry>
        </mxCell>
        <mxCell id="KaJSE7OLxL7kk_35rbbq-79" value="result()" style="html=1;whiteSpace=wrap;rounded=1;fillColor=#dae8fc;strokeColor=#6c8ebf;" vertex="1" parent="1">
          <mxGeometry x="77" y="1009" width="60" height="30" as="geometry" />
        </mxCell>
        <mxCell id="KaJSE7OLxL7kk_35rbbq-80" value="" style="endArrow=diamondThin;endFill=1;endSize=15;html=1;rounded=0;entryX=0.25;entryY=1;entryDx=0;entryDy=0;exitX=0.5;exitY=0;exitDx=0;exitDy=0;" edge="1" parent="1" source="KaJSE7OLxL7kk_35rbbq-79" target="KaJSE7OLxL7kk_35rbbq-3">
          <mxGeometry width="160" relative="1" as="geometry">
            <mxPoint x="125" y="500" as="sourcePoint" />
            <mxPoint x="495" y="410" as="targetPoint" />
          </mxGeometry>
        </mxCell>
        <mxCell id="KaJSE7OLxL7kk_35rbbq-81" value="" style="endArrow=open;endSize=12;dashed=1;html=1;rounded=0;edgeStyle=orthogonalEdgeStyle;exitX=0.5;exitY=1;exitDx=0;exitDy=0;entryX=0.5;entryY=1;entryDx=0;entryDy=0;" edge="1" parent="1" source="KaJSE7OLxL7kk_35rbbq-79" target="KaJSE7OLxL7kk_35rbbq-126">
          <mxGeometry width="160" relative="1" as="geometry">
            <mxPoint x="30" y="917" as="sourcePoint" />
            <mxPoint x="264" y="1007" as="targetPoint" />
            <Array as="points">
              <mxPoint x="105" y="1070" />
              <mxPoint x="245" y="1070" />
            </Array>
          </mxGeometry>
        </mxCell>
        <mxCell id="KaJSE7OLxL7kk_35rbbq-82" value="" style="endArrow=open;endSize=12;dashed=1;html=1;rounded=0;edgeStyle=orthogonalEdgeStyle;exitX=0.5;exitY=1;exitDx=0;exitDy=0;entryX=0.5;entryY=1;entryDx=0;entryDy=0;" edge="1" parent="1" source="KaJSE7OLxL7kk_35rbbq-79" target="KaJSE7OLxL7kk_35rbbq-145">
          <mxGeometry width="160" relative="1" as="geometry">
            <mxPoint x="105" y="657" as="sourcePoint" />
            <mxPoint x="384" y="1017" as="targetPoint" />
            <Array as="points">
              <mxPoint x="105" y="1070" />
              <mxPoint x="384" y="1070" />
            </Array>
          </mxGeometry>
        </mxCell>
        <mxCell id="KaJSE7OLxL7kk_35rbbq-83" value="" style="endArrow=open;endSize=12;dashed=1;html=1;rounded=0;edgeStyle=orthogonalEdgeStyle;exitX=0.5;exitY=1;exitDx=0;exitDy=0;entryX=0.5;entryY=1;entryDx=0;entryDy=0;" edge="1" parent="1" source="KaJSE7OLxL7kk_35rbbq-79" target="KaJSE7OLxL7kk_35rbbq-107">
          <mxGeometry width="160" relative="1" as="geometry">
            <mxPoint x="105" y="657" as="sourcePoint" />
            <mxPoint x="520" y="1017" as="targetPoint" />
            <Array as="points">
              <mxPoint x="105" y="1070" />
              <mxPoint x="524" y="1070" />
            </Array>
          </mxGeometry>
        </mxCell>
        <mxCell id="KaJSE7OLxL7kk_35rbbq-84" value="" style="endArrow=open;endSize=12;dashed=1;html=1;rounded=0;edgeStyle=orthogonalEdgeStyle;exitX=0.5;exitY=1;exitDx=0;exitDy=0;entryX=0.5;entryY=1;entryDx=0;entryDy=0;" edge="1" parent="1" source="KaJSE7OLxL7kk_35rbbq-79" target="KaJSE7OLxL7kk_35rbbq-61">
          <mxGeometry width="160" relative="1" as="geometry">
            <mxPoint x="105" y="657" as="sourcePoint" />
            <mxPoint x="660" y="1017" as="targetPoint" />
            <Array as="points">
              <mxPoint x="105" y="1070" />
              <mxPoint x="663" y="1070" />
            </Array>
          </mxGeometry>
        </mxCell>
        <mxCell id="KaJSE7OLxL7kk_35rbbq-124" value="" style="group" vertex="1" connectable="0" parent="1">
          <mxGeometry x="449" y="639" width="140" height="400" as="geometry" />
        </mxCell>
        <mxCell id="KaJSE7OLxL7kk_35rbbq-107" value="call_opt()" style="html=1;whiteSpace=wrap;rounded=1;fillColor=#dae8fc;strokeColor=#6c8ebf;" vertex="1" parent="KaJSE7OLxL7kk_35rbbq-124">
          <mxGeometry x="40" y="370" width="70" height="30" as="geometry" />
        </mxCell>
        <mxCell id="KaJSE7OLxL7kk_35rbbq-108" value="K=110" style="html=1;whiteSpace=wrap;rounded=1;fillColor=#f8cecc;strokeColor=#b85450;flipV=1;flipH=1;" vertex="1" parent="KaJSE7OLxL7kk_35rbbq-124">
          <mxGeometry x="40" y="210" width="70" height="30" as="geometry" />
        </mxCell>
        <mxCell id="KaJSE7OLxL7kk_35rbbq-109" value="T=3" style="html=1;whiteSpace=wrap;rounded=1;fillColor=#fff2cc;strokeColor=#d6b656;flipV=1;flipH=1;" vertex="1" parent="KaJSE7OLxL7kk_35rbbq-124">
          <mxGeometry x="40" y="290" width="70" height="30" as="geometry" />
        </mxCell>
        <mxCell id="KaJSE7OLxL7kk_35rbbq-110" value="r=0.05" style="html=1;whiteSpace=wrap;rounded=1;fillColor=#fff2cc;strokeColor=#d6b656;flipV=1;flipH=1;" vertex="1" parent="KaJSE7OLxL7kk_35rbbq-124">
          <mxGeometry x="40" y="250" width="70" height="30" as="geometry" />
        </mxCell>
        <mxCell id="KaJSE7OLxL7kk_35rbbq-111" value="sigma=0.2" style="html=1;whiteSpace=wrap;rounded=1;fillColor=#f8cecc;strokeColor=#b85450;flipV=1;flipH=1;" vertex="1" parent="KaJSE7OLxL7kk_35rbbq-124">
          <mxGeometry x="40" y="330" width="70" height="30" as="geometry" />
        </mxCell>
        <mxCell id="KaJSE7OLxL7kk_35rbbq-112" value="S0=100" style="html=1;whiteSpace=wrap;rounded=1;fillColor=#fff2cc;strokeColor=#d6b656;flipV=1;flipH=1;" vertex="1" parent="KaJSE7OLxL7kk_35rbbq-124">
          <mxGeometry x="40" y="170" width="70" height="30" as="geometry" />
        </mxCell>
        <mxCell id="KaJSE7OLxL7kk_35rbbq-113" value="" style="endArrow=diamondThin;endFill=1;endSize=15;html=1;rounded=0;exitX=0;exitY=0.5;exitDx=0;exitDy=0;edgeStyle=orthogonalEdgeStyle;entryX=0.25;entryY=1;entryDx=0;entryDy=0;" edge="1" parent="KaJSE7OLxL7kk_35rbbq-124" source="KaJSE7OLxL7kk_35rbbq-107" target="KaJSE7OLxL7kk_35rbbq-118">
          <mxGeometry width="160" relative="1" as="geometry">
            <mxPoint x="-138" y="180" as="sourcePoint" />
            <mxPoint x="30" y="50" as="targetPoint" />
            <Array as="points">
              <mxPoint x="28" y="385" />
              <mxPoint x="28" y="365" />
            </Array>
          </mxGeometry>
        </mxCell>
        <mxCell id="KaJSE7OLxL7kk_35rbbq-114" value="" style="endArrow=diamondThin;endFill=1;endSize=15;html=1;rounded=0;entryX=0.25;entryY=1;entryDx=0;entryDy=0;exitX=0;exitY=0.5;exitDx=0;exitDy=0;edgeStyle=orthogonalEdgeStyle;" edge="1" parent="KaJSE7OLxL7kk_35rbbq-124" source="KaJSE7OLxL7kk_35rbbq-109" target="KaJSE7OLxL7kk_35rbbq-118">
          <mxGeometry width="160" relative="1" as="geometry">
            <mxPoint x="-14" y="195" as="sourcePoint" />
            <mxPoint x="-56" y="160" as="targetPoint" />
          </mxGeometry>
        </mxCell>
        <mxCell id="KaJSE7OLxL7kk_35rbbq-115" value="" style="endArrow=diamondThin;endFill=1;endSize=15;html=1;rounded=0;entryX=0.25;entryY=1;entryDx=0;entryDy=0;exitX=0;exitY=0.5;exitDx=0;exitDy=0;edgeStyle=orthogonalEdgeStyle;" edge="1" parent="KaJSE7OLxL7kk_35rbbq-124" source="KaJSE7OLxL7kk_35rbbq-110" target="KaJSE7OLxL7kk_35rbbq-118">
          <mxGeometry width="160" relative="1" as="geometry">
            <mxPoint x="42" y="165" as="sourcePoint" />
            <mxPoint y="130" as="targetPoint" />
          </mxGeometry>
        </mxCell>
        <mxCell id="KaJSE7OLxL7kk_35rbbq-116" value="" style="endArrow=diamondThin;endFill=1;endSize=15;html=1;rounded=0;entryX=0.25;entryY=1;entryDx=0;entryDy=0;edgeStyle=orthogonalEdgeStyle;exitX=0;exitY=0.5;exitDx=0;exitDy=0;" edge="1" parent="KaJSE7OLxL7kk_35rbbq-124" source="KaJSE7OLxL7kk_35rbbq-111" target="KaJSE7OLxL7kk_35rbbq-118">
          <mxGeometry width="160" relative="1" as="geometry">
            <mxPoint x="-10" y="300" as="sourcePoint" />
            <mxPoint x="-52" y="265" as="targetPoint" />
          </mxGeometry>
        </mxCell>
        <mxCell id="KaJSE7OLxL7kk_35rbbq-117" value="" style="endArrow=diamondThin;endFill=1;endSize=15;html=1;rounded=0;entryX=0.25;entryY=1;entryDx=0;entryDy=0;exitX=0;exitY=0.5;exitDx=0;exitDy=0;edgeStyle=orthogonalEdgeStyle;" edge="1" parent="KaJSE7OLxL7kk_35rbbq-124" source="KaJSE7OLxL7kk_35rbbq-112" target="KaJSE7OLxL7kk_35rbbq-118">
          <mxGeometry width="160" relative="1" as="geometry">
            <mxPoint x="-120" y="120" as="sourcePoint" />
            <mxPoint x="40" y="120" as="targetPoint" />
          </mxGeometry>
        </mxCell>
        <mxCell id="KaJSE7OLxL7kk_35rbbq-118" value="BlackScholes&lt;br&gt;[110, 0.2]" style="html=1;whiteSpace=wrap;rounded=0;fillColor=#d5e8d4;strokeColor=#82b366;" vertex="1" parent="KaJSE7OLxL7kk_35rbbq-124">
          <mxGeometry width="110" height="50" as="geometry" />
        </mxCell>
        <mxCell id="KaJSE7OLxL7kk_35rbbq-119" value="" style="endArrow=diamondThin;endFill=1;endSize=15;html=1;rounded=0;entryX=0.25;entryY=1;entryDx=0;entryDy=0;edgeStyle=orthogonalEdgeStyle;exitX=0;exitY=0.5;exitDx=0;exitDy=0;" edge="1" parent="KaJSE7OLxL7kk_35rbbq-124" source="KaJSE7OLxL7kk_35rbbq-108">
          <mxGeometry width="160" relative="1" as="geometry">
            <mxPoint x="70" y="110" as="sourcePoint" />
            <mxPoint x="28" y="50" as="targetPoint" />
            <Array as="points">
              <mxPoint x="28" y="225" />
            </Array>
          </mxGeometry>
        </mxCell>
        <mxCell id="KaJSE7OLxL7kk_35rbbq-120" value="stats=scipy.stats" style="html=1;whiteSpace=wrap;rounded=1;fillColor=#fff2cc;strokeColor=#d6b656;flipV=1;flipH=1;" vertex="1" parent="KaJSE7OLxL7kk_35rbbq-124">
          <mxGeometry x="40" y="90" width="100" height="30" as="geometry" />
        </mxCell>
        <mxCell id="KaJSE7OLxL7kk_35rbbq-121" value="math=math" style="html=1;whiteSpace=wrap;rounded=1;fillColor=#fff2cc;strokeColor=#d6b656;flipV=1;flipH=1;" vertex="1" parent="KaJSE7OLxL7kk_35rbbq-124">
          <mxGeometry x="40" y="130" width="100" height="30" as="geometry" />
        </mxCell>
        <mxCell id="KaJSE7OLxL7kk_35rbbq-122" value="" style="endArrow=diamondThin;endFill=1;endSize=15;html=1;rounded=0;exitX=0;exitY=0.5;exitDx=0;exitDy=0;edgeStyle=orthogonalEdgeStyle;entryX=0.25;entryY=1;entryDx=0;entryDy=0;" edge="1" parent="KaJSE7OLxL7kk_35rbbq-124" source="KaJSE7OLxL7kk_35rbbq-121" target="KaJSE7OLxL7kk_35rbbq-118">
          <mxGeometry width="160" relative="1" as="geometry">
            <mxPoint x="50" y="395" as="sourcePoint" />
            <mxPoint x="38" y="60" as="targetPoint" />
            <Array as="points">
              <mxPoint x="28" y="145" />
            </Array>
          </mxGeometry>
        </mxCell>
        <mxCell id="KaJSE7OLxL7kk_35rbbq-123" value="" style="endArrow=diamondThin;endFill=1;endSize=15;html=1;rounded=0;exitX=0;exitY=0.5;exitDx=0;exitDy=0;edgeStyle=orthogonalEdgeStyle;entryX=0.25;entryY=1;entryDx=0;entryDy=0;" edge="1" parent="KaJSE7OLxL7kk_35rbbq-124" source="KaJSE7OLxL7kk_35rbbq-120" target="KaJSE7OLxL7kk_35rbbq-118">
          <mxGeometry width="160" relative="1" as="geometry">
            <mxPoint x="50" y="155" as="sourcePoint" />
            <mxPoint x="38" y="60" as="targetPoint" />
            <Array as="points">
              <mxPoint x="28" y="105" />
            </Array>
          </mxGeometry>
        </mxCell>
        <mxCell id="KaJSE7OLxL7kk_35rbbq-125" value="" style="group" vertex="1" connectable="0" parent="1">
          <mxGeometry x="170" y="639" width="140" height="400" as="geometry" />
        </mxCell>
        <mxCell id="KaJSE7OLxL7kk_35rbbq-126" value="call_opt()" style="html=1;whiteSpace=wrap;rounded=1;fillColor=#dae8fc;strokeColor=#6c8ebf;" vertex="1" parent="KaJSE7OLxL7kk_35rbbq-125">
          <mxGeometry x="40" y="370" width="70" height="30" as="geometry" />
        </mxCell>
        <mxCell id="KaJSE7OLxL7kk_35rbbq-127" value="K=100" style="html=1;whiteSpace=wrap;rounded=1;fillColor=#f8cecc;strokeColor=#b85450;flipV=1;flipH=1;" vertex="1" parent="KaJSE7OLxL7kk_35rbbq-125">
          <mxGeometry x="40" y="210" width="70" height="30" as="geometry" />
        </mxCell>
        <mxCell id="KaJSE7OLxL7kk_35rbbq-128" value="T=3" style="html=1;whiteSpace=wrap;rounded=1;fillColor=#fff2cc;strokeColor=#d6b656;flipV=1;flipH=1;" vertex="1" parent="KaJSE7OLxL7kk_35rbbq-125">
          <mxGeometry x="40" y="290" width="70" height="30" as="geometry" />
        </mxCell>
        <mxCell id="KaJSE7OLxL7kk_35rbbq-129" value="r=0.05" style="html=1;whiteSpace=wrap;rounded=1;fillColor=#fff2cc;strokeColor=#d6b656;flipV=1;flipH=1;" vertex="1" parent="KaJSE7OLxL7kk_35rbbq-125">
          <mxGeometry x="40" y="250" width="70" height="30" as="geometry" />
        </mxCell>
        <mxCell id="KaJSE7OLxL7kk_35rbbq-130" value="sigma=0.2" style="html=1;whiteSpace=wrap;rounded=1;fillColor=#f8cecc;strokeColor=#b85450;flipV=1;flipH=1;" vertex="1" parent="KaJSE7OLxL7kk_35rbbq-125">
          <mxGeometry x="40" y="330" width="70" height="30" as="geometry" />
        </mxCell>
        <mxCell id="KaJSE7OLxL7kk_35rbbq-131" value="S0=100" style="html=1;whiteSpace=wrap;rounded=1;fillColor=#fff2cc;strokeColor=#d6b656;flipV=1;flipH=1;" vertex="1" parent="KaJSE7OLxL7kk_35rbbq-125">
          <mxGeometry x="40" y="170" width="70" height="30" as="geometry" />
        </mxCell>
        <mxCell id="KaJSE7OLxL7kk_35rbbq-132" value="" style="endArrow=diamondThin;endFill=1;endSize=15;html=1;rounded=0;exitX=0;exitY=0.5;exitDx=0;exitDy=0;edgeStyle=orthogonalEdgeStyle;entryX=0.25;entryY=1;entryDx=0;entryDy=0;" edge="1" parent="KaJSE7OLxL7kk_35rbbq-125" source="KaJSE7OLxL7kk_35rbbq-126" target="KaJSE7OLxL7kk_35rbbq-137">
          <mxGeometry width="160" relative="1" as="geometry">
            <mxPoint x="-138" y="180" as="sourcePoint" />
            <mxPoint x="30" y="50" as="targetPoint" />
            <Array as="points">
              <mxPoint x="28" y="385" />
              <mxPoint x="28" y="365" />
            </Array>
          </mxGeometry>
        </mxCell>
        <mxCell id="KaJSE7OLxL7kk_35rbbq-133" value="" style="endArrow=diamondThin;endFill=1;endSize=15;html=1;rounded=0;entryX=0.25;entryY=1;entryDx=0;entryDy=0;exitX=0;exitY=0.5;exitDx=0;exitDy=0;edgeStyle=orthogonalEdgeStyle;" edge="1" parent="KaJSE7OLxL7kk_35rbbq-125" source="KaJSE7OLxL7kk_35rbbq-128" target="KaJSE7OLxL7kk_35rbbq-137">
          <mxGeometry width="160" relative="1" as="geometry">
            <mxPoint x="-14" y="195" as="sourcePoint" />
            <mxPoint x="-56" y="160" as="targetPoint" />
          </mxGeometry>
        </mxCell>
        <mxCell id="KaJSE7OLxL7kk_35rbbq-134" value="" style="endArrow=diamondThin;endFill=1;endSize=15;html=1;rounded=0;entryX=0.25;entryY=1;entryDx=0;entryDy=0;exitX=0;exitY=0.5;exitDx=0;exitDy=0;edgeStyle=orthogonalEdgeStyle;" edge="1" parent="KaJSE7OLxL7kk_35rbbq-125" source="KaJSE7OLxL7kk_35rbbq-129" target="KaJSE7OLxL7kk_35rbbq-137">
          <mxGeometry width="160" relative="1" as="geometry">
            <mxPoint x="42" y="165" as="sourcePoint" />
            <mxPoint y="130" as="targetPoint" />
          </mxGeometry>
        </mxCell>
        <mxCell id="KaJSE7OLxL7kk_35rbbq-135" value="" style="endArrow=diamondThin;endFill=1;endSize=15;html=1;rounded=0;entryX=0.25;entryY=1;entryDx=0;entryDy=0;edgeStyle=orthogonalEdgeStyle;exitX=0;exitY=0.5;exitDx=0;exitDy=0;" edge="1" parent="KaJSE7OLxL7kk_35rbbq-125" source="KaJSE7OLxL7kk_35rbbq-130" target="KaJSE7OLxL7kk_35rbbq-137">
          <mxGeometry width="160" relative="1" as="geometry">
            <mxPoint x="-10" y="300" as="sourcePoint" />
            <mxPoint x="-52" y="265" as="targetPoint" />
          </mxGeometry>
        </mxCell>
        <mxCell id="KaJSE7OLxL7kk_35rbbq-136" value="" style="endArrow=diamondThin;endFill=1;endSize=15;html=1;rounded=0;entryX=0.25;entryY=1;entryDx=0;entryDy=0;exitX=0;exitY=0.5;exitDx=0;exitDy=0;edgeStyle=orthogonalEdgeStyle;" edge="1" parent="KaJSE7OLxL7kk_35rbbq-125" source="KaJSE7OLxL7kk_35rbbq-131" target="KaJSE7OLxL7kk_35rbbq-137">
          <mxGeometry width="160" relative="1" as="geometry">
            <mxPoint x="-120" y="120" as="sourcePoint" />
            <mxPoint x="40" y="120" as="targetPoint" />
          </mxGeometry>
        </mxCell>
        <mxCell id="KaJSE7OLxL7kk_35rbbq-137" value="BlackScholes&lt;br&gt;[100, 0.2]" style="html=1;whiteSpace=wrap;rounded=0;fillColor=#d5e8d4;strokeColor=#82b366;" vertex="1" parent="KaJSE7OLxL7kk_35rbbq-125">
          <mxGeometry width="110" height="50" as="geometry" />
        </mxCell>
        <mxCell id="KaJSE7OLxL7kk_35rbbq-138" value="" style="endArrow=diamondThin;endFill=1;endSize=15;html=1;rounded=0;entryX=0.25;entryY=1;entryDx=0;entryDy=0;edgeStyle=orthogonalEdgeStyle;exitX=0;exitY=0.5;exitDx=0;exitDy=0;" edge="1" parent="KaJSE7OLxL7kk_35rbbq-125" source="KaJSE7OLxL7kk_35rbbq-127">
          <mxGeometry width="160" relative="1" as="geometry">
            <mxPoint x="70" y="110" as="sourcePoint" />
            <mxPoint x="28" y="50" as="targetPoint" />
            <Array as="points">
              <mxPoint x="28" y="225" />
            </Array>
          </mxGeometry>
        </mxCell>
        <mxCell id="KaJSE7OLxL7kk_35rbbq-139" value="stats=scipy.stats" style="html=1;whiteSpace=wrap;rounded=1;fillColor=#fff2cc;strokeColor=#d6b656;flipV=1;flipH=1;" vertex="1" parent="KaJSE7OLxL7kk_35rbbq-125">
          <mxGeometry x="40" y="90" width="100" height="30" as="geometry" />
        </mxCell>
        <mxCell id="KaJSE7OLxL7kk_35rbbq-140" value="math=math" style="html=1;whiteSpace=wrap;rounded=1;fillColor=#fff2cc;strokeColor=#d6b656;flipV=1;flipH=1;" vertex="1" parent="KaJSE7OLxL7kk_35rbbq-125">
          <mxGeometry x="40" y="130" width="100" height="30" as="geometry" />
        </mxCell>
        <mxCell id="KaJSE7OLxL7kk_35rbbq-141" value="" style="endArrow=diamondThin;endFill=1;endSize=15;html=1;rounded=0;exitX=0;exitY=0.5;exitDx=0;exitDy=0;edgeStyle=orthogonalEdgeStyle;entryX=0.25;entryY=1;entryDx=0;entryDy=0;" edge="1" parent="KaJSE7OLxL7kk_35rbbq-125" source="KaJSE7OLxL7kk_35rbbq-140" target="KaJSE7OLxL7kk_35rbbq-137">
          <mxGeometry width="160" relative="1" as="geometry">
            <mxPoint x="50" y="395" as="sourcePoint" />
            <mxPoint x="38" y="60" as="targetPoint" />
            <Array as="points">
              <mxPoint x="28" y="145" />
            </Array>
          </mxGeometry>
        </mxCell>
        <mxCell id="KaJSE7OLxL7kk_35rbbq-142" value="" style="endArrow=diamondThin;endFill=1;endSize=15;html=1;rounded=0;exitX=0;exitY=0.5;exitDx=0;exitDy=0;edgeStyle=orthogonalEdgeStyle;entryX=0.25;entryY=1;entryDx=0;entryDy=0;" edge="1" parent="KaJSE7OLxL7kk_35rbbq-125" source="KaJSE7OLxL7kk_35rbbq-139" target="KaJSE7OLxL7kk_35rbbq-137">
          <mxGeometry width="160" relative="1" as="geometry">
            <mxPoint x="50" y="155" as="sourcePoint" />
            <mxPoint x="38" y="60" as="targetPoint" />
            <Array as="points">
              <mxPoint x="28" y="105" />
            </Array>
          </mxGeometry>
        </mxCell>
        <mxCell id="KaJSE7OLxL7kk_35rbbq-144" value="" style="group" vertex="1" connectable="0" parent="1">
          <mxGeometry x="309" y="639" width="140" height="400" as="geometry" />
        </mxCell>
        <mxCell id="KaJSE7OLxL7kk_35rbbq-145" value="call_opt()" style="html=1;whiteSpace=wrap;rounded=1;fillColor=#dae8fc;strokeColor=#6c8ebf;" vertex="1" parent="KaJSE7OLxL7kk_35rbbq-144">
          <mxGeometry x="40" y="370" width="70" height="30" as="geometry" />
        </mxCell>
        <mxCell id="KaJSE7OLxL7kk_35rbbq-146" value="K=100" style="html=1;whiteSpace=wrap;rounded=1;fillColor=#f8cecc;strokeColor=#b85450;flipV=1;flipH=1;" vertex="1" parent="KaJSE7OLxL7kk_35rbbq-144">
          <mxGeometry x="40" y="210" width="70" height="30" as="geometry" />
        </mxCell>
        <mxCell id="KaJSE7OLxL7kk_35rbbq-147" value="T=3" style="html=1;whiteSpace=wrap;rounded=1;fillColor=#fff2cc;strokeColor=#d6b656;flipV=1;flipH=1;" vertex="1" parent="KaJSE7OLxL7kk_35rbbq-144">
          <mxGeometry x="40" y="290" width="70" height="30" as="geometry" />
        </mxCell>
        <mxCell id="KaJSE7OLxL7kk_35rbbq-148" value="r=0.05" style="html=1;whiteSpace=wrap;rounded=1;fillColor=#fff2cc;strokeColor=#d6b656;flipV=1;flipH=1;" vertex="1" parent="KaJSE7OLxL7kk_35rbbq-144">
          <mxGeometry x="40" y="250" width="70" height="30" as="geometry" />
        </mxCell>
        <mxCell id="KaJSE7OLxL7kk_35rbbq-149" value="sigma=0.3" style="html=1;whiteSpace=wrap;rounded=1;fillColor=#f8cecc;strokeColor=#b85450;flipV=1;flipH=1;" vertex="1" parent="KaJSE7OLxL7kk_35rbbq-144">
          <mxGeometry x="40" y="330" width="70" height="30" as="geometry" />
        </mxCell>
        <mxCell id="KaJSE7OLxL7kk_35rbbq-150" value="S0=100" style="html=1;whiteSpace=wrap;rounded=1;fillColor=#fff2cc;strokeColor=#d6b656;flipV=1;flipH=1;" vertex="1" parent="KaJSE7OLxL7kk_35rbbq-144">
          <mxGeometry x="40" y="170" width="70" height="30" as="geometry" />
        </mxCell>
        <mxCell id="KaJSE7OLxL7kk_35rbbq-151" value="" style="endArrow=diamondThin;endFill=1;endSize=15;html=1;rounded=0;exitX=0;exitY=0.5;exitDx=0;exitDy=0;edgeStyle=orthogonalEdgeStyle;entryX=0.25;entryY=1;entryDx=0;entryDy=0;" edge="1" parent="KaJSE7OLxL7kk_35rbbq-144" source="KaJSE7OLxL7kk_35rbbq-145" target="KaJSE7OLxL7kk_35rbbq-156">
          <mxGeometry width="160" relative="1" as="geometry">
            <mxPoint x="-138" y="180" as="sourcePoint" />
            <mxPoint x="30" y="50" as="targetPoint" />
            <Array as="points">
              <mxPoint x="28" y="385" />
              <mxPoint x="28" y="365" />
            </Array>
          </mxGeometry>
        </mxCell>
        <mxCell id="KaJSE7OLxL7kk_35rbbq-152" value="" style="endArrow=diamondThin;endFill=1;endSize=15;html=1;rounded=0;entryX=0.25;entryY=1;entryDx=0;entryDy=0;exitX=0;exitY=0.5;exitDx=0;exitDy=0;edgeStyle=orthogonalEdgeStyle;" edge="1" parent="KaJSE7OLxL7kk_35rbbq-144" source="KaJSE7OLxL7kk_35rbbq-147" target="KaJSE7OLxL7kk_35rbbq-156">
          <mxGeometry width="160" relative="1" as="geometry">
            <mxPoint x="-14" y="195" as="sourcePoint" />
            <mxPoint x="-56" y="160" as="targetPoint" />
          </mxGeometry>
        </mxCell>
        <mxCell id="KaJSE7OLxL7kk_35rbbq-153" value="" style="endArrow=diamondThin;endFill=1;endSize=15;html=1;rounded=0;entryX=0.25;entryY=1;entryDx=0;entryDy=0;exitX=0;exitY=0.5;exitDx=0;exitDy=0;edgeStyle=orthogonalEdgeStyle;" edge="1" parent="KaJSE7OLxL7kk_35rbbq-144" source="KaJSE7OLxL7kk_35rbbq-148" target="KaJSE7OLxL7kk_35rbbq-156">
          <mxGeometry width="160" relative="1" as="geometry">
            <mxPoint x="42" y="165" as="sourcePoint" />
            <mxPoint y="130" as="targetPoint" />
          </mxGeometry>
        </mxCell>
        <mxCell id="KaJSE7OLxL7kk_35rbbq-154" value="" style="endArrow=diamondThin;endFill=1;endSize=15;html=1;rounded=0;entryX=0.25;entryY=1;entryDx=0;entryDy=0;edgeStyle=orthogonalEdgeStyle;exitX=0;exitY=0.5;exitDx=0;exitDy=0;" edge="1" parent="KaJSE7OLxL7kk_35rbbq-144" source="KaJSE7OLxL7kk_35rbbq-149" target="KaJSE7OLxL7kk_35rbbq-156">
          <mxGeometry width="160" relative="1" as="geometry">
            <mxPoint x="-10" y="300" as="sourcePoint" />
            <mxPoint x="-52" y="265" as="targetPoint" />
          </mxGeometry>
        </mxCell>
        <mxCell id="KaJSE7OLxL7kk_35rbbq-155" value="" style="endArrow=diamondThin;endFill=1;endSize=15;html=1;rounded=0;entryX=0.25;entryY=1;entryDx=0;entryDy=0;exitX=0;exitY=0.5;exitDx=0;exitDy=0;edgeStyle=orthogonalEdgeStyle;" edge="1" parent="KaJSE7OLxL7kk_35rbbq-144" source="KaJSE7OLxL7kk_35rbbq-150" target="KaJSE7OLxL7kk_35rbbq-156">
          <mxGeometry width="160" relative="1" as="geometry">
            <mxPoint x="-120" y="120" as="sourcePoint" />
            <mxPoint x="40" y="120" as="targetPoint" />
          </mxGeometry>
        </mxCell>
        <mxCell id="KaJSE7OLxL7kk_35rbbq-156" value="BlackScholes&lt;br&gt;[100, 0.3]" style="html=1;whiteSpace=wrap;rounded=0;fillColor=#d5e8d4;strokeColor=#82b366;" vertex="1" parent="KaJSE7OLxL7kk_35rbbq-144">
          <mxGeometry width="110" height="50" as="geometry" />
        </mxCell>
        <mxCell id="KaJSE7OLxL7kk_35rbbq-157" value="" style="endArrow=diamondThin;endFill=1;endSize=15;html=1;rounded=0;entryX=0.25;entryY=1;entryDx=0;entryDy=0;edgeStyle=orthogonalEdgeStyle;exitX=0;exitY=0.5;exitDx=0;exitDy=0;" edge="1" parent="KaJSE7OLxL7kk_35rbbq-144" source="KaJSE7OLxL7kk_35rbbq-146">
          <mxGeometry width="160" relative="1" as="geometry">
            <mxPoint x="70" y="110" as="sourcePoint" />
            <mxPoint x="28" y="50" as="targetPoint" />
            <Array as="points">
              <mxPoint x="28" y="225" />
            </Array>
          </mxGeometry>
        </mxCell>
        <mxCell id="KaJSE7OLxL7kk_35rbbq-158" value="stats=scipy.stats" style="html=1;whiteSpace=wrap;rounded=1;fillColor=#fff2cc;strokeColor=#d6b656;flipV=1;flipH=1;" vertex="1" parent="KaJSE7OLxL7kk_35rbbq-144">
          <mxGeometry x="40" y="90" width="100" height="30" as="geometry" />
        </mxCell>
        <mxCell id="KaJSE7OLxL7kk_35rbbq-159" value="math=math" style="html=1;whiteSpace=wrap;rounded=1;fillColor=#fff2cc;strokeColor=#d6b656;flipV=1;flipH=1;" vertex="1" parent="KaJSE7OLxL7kk_35rbbq-144">
          <mxGeometry x="40" y="130" width="100" height="30" as="geometry" />
        </mxCell>
        <mxCell id="KaJSE7OLxL7kk_35rbbq-160" value="" style="endArrow=diamondThin;endFill=1;endSize=15;html=1;rounded=0;exitX=0;exitY=0.5;exitDx=0;exitDy=0;edgeStyle=orthogonalEdgeStyle;entryX=0.25;entryY=1;entryDx=0;entryDy=0;" edge="1" parent="KaJSE7OLxL7kk_35rbbq-144" source="KaJSE7OLxL7kk_35rbbq-159" target="KaJSE7OLxL7kk_35rbbq-156">
          <mxGeometry width="160" relative="1" as="geometry">
            <mxPoint x="50" y="395" as="sourcePoint" />
            <mxPoint x="38" y="60" as="targetPoint" />
            <Array as="points">
              <mxPoint x="28" y="145" />
            </Array>
          </mxGeometry>
        </mxCell>
        <mxCell id="KaJSE7OLxL7kk_35rbbq-161" value="" style="endArrow=diamondThin;endFill=1;endSize=15;html=1;rounded=0;exitX=0;exitY=0.5;exitDx=0;exitDy=0;edgeStyle=orthogonalEdgeStyle;entryX=0.25;entryY=1;entryDx=0;entryDy=0;" edge="1" parent="KaJSE7OLxL7kk_35rbbq-144" source="KaJSE7OLxL7kk_35rbbq-158" target="KaJSE7OLxL7kk_35rbbq-156">
          <mxGeometry width="160" relative="1" as="geometry">
            <mxPoint x="50" y="155" as="sourcePoint" />
            <mxPoint x="38" y="60" as="targetPoint" />
            <Array as="points">
              <mxPoint x="28" y="105" />
            </Array>
          </mxGeometry>
        </mxCell>
        <mxCell id="KaJSE7OLxL7kk_35rbbq-163" value="" style="group" vertex="1" connectable="0" parent="1">
          <mxGeometry x="588" y="639" width="140" height="400" as="geometry" />
        </mxCell>
        <mxCell id="KaJSE7OLxL7kk_35rbbq-61" value="call_opt()" style="html=1;whiteSpace=wrap;rounded=1;fillColor=#dae8fc;strokeColor=#6c8ebf;" vertex="1" parent="KaJSE7OLxL7kk_35rbbq-163">
          <mxGeometry x="40" y="370" width="70" height="30" as="geometry" />
        </mxCell>
        <mxCell id="KaJSE7OLxL7kk_35rbbq-62" value="K=110" style="html=1;whiteSpace=wrap;rounded=1;fillColor=#f8cecc;strokeColor=#b85450;flipV=1;flipH=1;" vertex="1" parent="KaJSE7OLxL7kk_35rbbq-163">
          <mxGeometry x="40" y="210" width="70" height="30" as="geometry" />
        </mxCell>
        <mxCell id="KaJSE7OLxL7kk_35rbbq-63" value="T=3" style="html=1;whiteSpace=wrap;rounded=1;fillColor=#fff2cc;strokeColor=#d6b656;flipV=1;flipH=1;" vertex="1" parent="KaJSE7OLxL7kk_35rbbq-163">
          <mxGeometry x="40" y="290" width="70" height="30" as="geometry" />
        </mxCell>
        <mxCell id="KaJSE7OLxL7kk_35rbbq-64" value="r=0.05" style="html=1;whiteSpace=wrap;rounded=1;fillColor=#fff2cc;strokeColor=#d6b656;flipV=1;flipH=1;" vertex="1" parent="KaJSE7OLxL7kk_35rbbq-163">
          <mxGeometry x="40" y="250" width="70" height="30" as="geometry" />
        </mxCell>
        <mxCell id="KaJSE7OLxL7kk_35rbbq-65" value="sigma=0.3" style="html=1;whiteSpace=wrap;rounded=1;fillColor=#f8cecc;strokeColor=#b85450;flipV=1;flipH=1;" vertex="1" parent="KaJSE7OLxL7kk_35rbbq-163">
          <mxGeometry x="40" y="330" width="70" height="30" as="geometry" />
        </mxCell>
        <mxCell id="KaJSE7OLxL7kk_35rbbq-66" value="S0=100" style="html=1;whiteSpace=wrap;rounded=1;fillColor=#fff2cc;strokeColor=#d6b656;flipV=1;flipH=1;" vertex="1" parent="KaJSE7OLxL7kk_35rbbq-163">
          <mxGeometry x="40" y="170" width="70" height="30" as="geometry" />
        </mxCell>
        <mxCell id="KaJSE7OLxL7kk_35rbbq-72" value="" style="endArrow=diamondThin;endFill=1;endSize=15;html=1;rounded=0;exitX=0;exitY=0.5;exitDx=0;exitDy=0;edgeStyle=orthogonalEdgeStyle;entryX=0.25;entryY=1;entryDx=0;entryDy=0;" edge="1" parent="KaJSE7OLxL7kk_35rbbq-163" source="KaJSE7OLxL7kk_35rbbq-61" target="KaJSE7OLxL7kk_35rbbq-60">
          <mxGeometry width="160" relative="1" as="geometry">
            <mxPoint x="-138" y="180" as="sourcePoint" />
            <mxPoint x="30" y="50" as="targetPoint" />
            <Array as="points">
              <mxPoint x="28" y="385" />
              <mxPoint x="28" y="365" />
            </Array>
          </mxGeometry>
        </mxCell>
        <mxCell id="KaJSE7OLxL7kk_35rbbq-69" value="" style="endArrow=diamondThin;endFill=1;endSize=15;html=1;rounded=0;entryX=0.25;entryY=1;entryDx=0;entryDy=0;exitX=0;exitY=0.5;exitDx=0;exitDy=0;edgeStyle=orthogonalEdgeStyle;" edge="1" parent="KaJSE7OLxL7kk_35rbbq-163" source="KaJSE7OLxL7kk_35rbbq-63" target="KaJSE7OLxL7kk_35rbbq-60">
          <mxGeometry width="160" relative="1" as="geometry">
            <mxPoint x="-14" y="195" as="sourcePoint" />
            <mxPoint x="-56" y="160" as="targetPoint" />
          </mxGeometry>
        </mxCell>
        <mxCell id="KaJSE7OLxL7kk_35rbbq-68" value="" style="endArrow=diamondThin;endFill=1;endSize=15;html=1;rounded=0;entryX=0.25;entryY=1;entryDx=0;entryDy=0;exitX=0;exitY=0.5;exitDx=0;exitDy=0;edgeStyle=orthogonalEdgeStyle;" edge="1" parent="KaJSE7OLxL7kk_35rbbq-163" source="KaJSE7OLxL7kk_35rbbq-64" target="KaJSE7OLxL7kk_35rbbq-60">
          <mxGeometry width="160" relative="1" as="geometry">
            <mxPoint x="42" y="165" as="sourcePoint" />
            <mxPoint y="130" as="targetPoint" />
          </mxGeometry>
        </mxCell>
        <mxCell id="KaJSE7OLxL7kk_35rbbq-71" value="" style="endArrow=diamondThin;endFill=1;endSize=15;html=1;rounded=0;entryX=0.25;entryY=1;entryDx=0;entryDy=0;edgeStyle=orthogonalEdgeStyle;exitX=0;exitY=0.5;exitDx=0;exitDy=0;" edge="1" parent="KaJSE7OLxL7kk_35rbbq-163" source="KaJSE7OLxL7kk_35rbbq-65" target="KaJSE7OLxL7kk_35rbbq-60">
          <mxGeometry width="160" relative="1" as="geometry">
            <mxPoint x="-10" y="300" as="sourcePoint" />
            <mxPoint x="-52" y="265" as="targetPoint" />
          </mxGeometry>
        </mxCell>
        <mxCell id="KaJSE7OLxL7kk_35rbbq-67" value="" style="endArrow=diamondThin;endFill=1;endSize=15;html=1;rounded=0;entryX=0.25;entryY=1;entryDx=0;entryDy=0;exitX=0;exitY=0.5;exitDx=0;exitDy=0;edgeStyle=orthogonalEdgeStyle;" edge="1" parent="KaJSE7OLxL7kk_35rbbq-163" source="KaJSE7OLxL7kk_35rbbq-66" target="KaJSE7OLxL7kk_35rbbq-60">
          <mxGeometry width="160" relative="1" as="geometry">
            <mxPoint x="-120" y="120" as="sourcePoint" />
            <mxPoint x="40" y="120" as="targetPoint" />
          </mxGeometry>
        </mxCell>
        <mxCell id="KaJSE7OLxL7kk_35rbbq-60" value="BlackScholes&lt;br&gt;[110, 0.3]" style="html=1;whiteSpace=wrap;rounded=0;fillColor=#d5e8d4;strokeColor=#82b366;" vertex="1" parent="KaJSE7OLxL7kk_35rbbq-163">
          <mxGeometry width="110" height="50" as="geometry" />
        </mxCell>
        <mxCell id="KaJSE7OLxL7kk_35rbbq-70" value="" style="endArrow=diamondThin;endFill=1;endSize=15;html=1;rounded=0;entryX=0.25;entryY=1;entryDx=0;entryDy=0;edgeStyle=orthogonalEdgeStyle;exitX=0;exitY=0.5;exitDx=0;exitDy=0;" edge="1" parent="KaJSE7OLxL7kk_35rbbq-163" source="KaJSE7OLxL7kk_35rbbq-62">
          <mxGeometry width="160" relative="1" as="geometry">
            <mxPoint x="70" y="110" as="sourcePoint" />
            <mxPoint x="28" y="50" as="targetPoint" />
            <Array as="points">
              <mxPoint x="28" y="225" />
            </Array>
          </mxGeometry>
        </mxCell>
        <mxCell id="KaJSE7OLxL7kk_35rbbq-85" value="stats=scipy.stats" style="html=1;whiteSpace=wrap;rounded=1;fillColor=#fff2cc;strokeColor=#d6b656;flipV=1;flipH=1;" vertex="1" parent="KaJSE7OLxL7kk_35rbbq-163">
          <mxGeometry x="40" y="90" width="100" height="30" as="geometry" />
        </mxCell>
        <mxCell id="KaJSE7OLxL7kk_35rbbq-86" value="math=math" style="html=1;whiteSpace=wrap;rounded=1;fillColor=#fff2cc;strokeColor=#d6b656;flipV=1;flipH=1;" vertex="1" parent="KaJSE7OLxL7kk_35rbbq-163">
          <mxGeometry x="40" y="130" width="100" height="30" as="geometry" />
        </mxCell>
        <mxCell id="KaJSE7OLxL7kk_35rbbq-88" value="" style="endArrow=diamondThin;endFill=1;endSize=15;html=1;rounded=0;exitX=0;exitY=0.5;exitDx=0;exitDy=0;edgeStyle=orthogonalEdgeStyle;entryX=0.25;entryY=1;entryDx=0;entryDy=0;" edge="1" parent="KaJSE7OLxL7kk_35rbbq-163" source="KaJSE7OLxL7kk_35rbbq-86" target="KaJSE7OLxL7kk_35rbbq-60">
          <mxGeometry width="160" relative="1" as="geometry">
            <mxPoint x="50" y="395" as="sourcePoint" />
            <mxPoint x="38" y="60" as="targetPoint" />
            <Array as="points">
              <mxPoint x="28" y="145" />
            </Array>
          </mxGeometry>
        </mxCell>
        <mxCell id="KaJSE7OLxL7kk_35rbbq-89" value="" style="endArrow=diamondThin;endFill=1;endSize=15;html=1;rounded=0;exitX=0;exitY=0.5;exitDx=0;exitDy=0;edgeStyle=orthogonalEdgeStyle;entryX=0.25;entryY=1;entryDx=0;entryDy=0;" edge="1" parent="KaJSE7OLxL7kk_35rbbq-163" source="KaJSE7OLxL7kk_35rbbq-85" target="KaJSE7OLxL7kk_35rbbq-60">
          <mxGeometry width="160" relative="1" as="geometry">
            <mxPoint x="50" y="155" as="sourcePoint" />
            <mxPoint x="38" y="60" as="targetPoint" />
            <Array as="points">
              <mxPoint x="28" y="105" />
            </Array>
          </mxGeometry>
        </mxCell>
        <mxCell id="KaJSE7OLxL7kk_35rbbq-90" value="call_opt()" style="html=1;whiteSpace=wrap;rounded=1;fillColor=#dae8fc;strokeColor=#6c8ebf;" vertex="1" parent="1">
          <mxGeometry x="623" y="527" width="70" height="30" as="geometry" />
        </mxCell>
        <mxCell id="KaJSE7OLxL7kk_35rbbq-91" value="K=110" style="html=1;whiteSpace=wrap;rounded=1;fillColor=#fff2cc;strokeColor=#d6b656;flipV=1;flipH=0;" vertex="1" parent="1">
          <mxGeometry x="623" y="473" width="70" height="30" as="geometry" />
        </mxCell>
        <mxCell id="KaJSE7OLxL7kk_35rbbq-92" value="T=3" style="html=1;whiteSpace=wrap;rounded=1;fillColor=#fff2cc;strokeColor=#d6b656;flipV=1;flipH=1;" vertex="1" parent="1">
          <mxGeometry x="452" y="527" width="70" height="30" as="geometry" />
        </mxCell>
        <mxCell id="KaJSE7OLxL7kk_35rbbq-93" value="r=0.05" style="html=1;whiteSpace=wrap;rounded=1;fillColor=#fff2cc;strokeColor=#d6b656;flipV=1;flipH=1;" vertex="1" parent="1">
          <mxGeometry x="355" y="527" width="70" height="30" as="geometry" />
        </mxCell>
        <mxCell id="KaJSE7OLxL7kk_35rbbq-94" value="sigma=0.2" style="html=1;whiteSpace=wrap;rounded=1;fillColor=#fff2cc;strokeColor=#d6b656;flipV=1;flipH=1;" vertex="1" parent="1">
          <mxGeometry x="540" y="526" width="70" height="30" as="geometry" />
        </mxCell>
        <mxCell id="KaJSE7OLxL7kk_35rbbq-95" value="S0=100" style="html=1;whiteSpace=wrap;rounded=1;fillColor=#fff2cc;strokeColor=#d6b656;flipV=1;flipH=0;" vertex="1" parent="1">
          <mxGeometry x="540" y="473" width="70" height="30" as="geometry" />
        </mxCell>
        <mxCell id="KaJSE7OLxL7kk_35rbbq-101" value="BlackScholes&lt;br&gt;[K, sigma]" style="html=1;whiteSpace=wrap;rounded=0;fillColor=#d5e8d4;strokeColor=#82b366;" vertex="1" parent="1">
          <mxGeometry x="210" y="490" width="110" height="50" as="geometry" />
        </mxCell>
        <mxCell id="KaJSE7OLxL7kk_35rbbq-103" value="stats=scipy.stats" style="html=1;whiteSpace=wrap;rounded=1;fillColor=#fff2cc;strokeColor=#d6b656;flipV=1;flipH=1;" vertex="1" parent="1">
          <mxGeometry x="340" y="473" width="100" height="30" as="geometry" />
        </mxCell>
        <mxCell id="KaJSE7OLxL7kk_35rbbq-104" value="math=math" style="html=1;whiteSpace=wrap;rounded=1;fillColor=#fff2cc;strokeColor=#d6b656;flipV=1;flipH=0;" vertex="1" parent="1">
          <mxGeometry x="449" y="473" width="76" height="30" as="geometry" />
        </mxCell>
        <mxCell id="KaJSE7OLxL7kk_35rbbq-168" value="" style="endArrow=diamondThin;endFill=1;endSize=15;html=1;rounded=0;edgeStyle=orthogonalEdgeStyle;entryX=0.5;entryY=1;entryDx=0;entryDy=0;exitX=0.5;exitY=0;exitDx=0;exitDy=0;" edge="1" parent="1" source="KaJSE7OLxL7kk_35rbbq-101" target="KaJSE7OLxL7kk_35rbbq-1">
          <mxGeometry width="160" relative="1" as="geometry">
            <mxPoint x="125" y="500" as="sourcePoint" />
            <mxPoint x="205" y="410" as="targetPoint" />
            <Array as="points">
              <mxPoint x="265" y="450" />
              <mxPoint x="195" y="450" />
            </Array>
          </mxGeometry>
        </mxCell>
        <mxCell id="KaJSE7OLxL7kk_35rbbq-170" value="" style="endArrow=diamondThin;endFill=1;endSize=15;html=1;rounded=0;edgeStyle=orthogonalEdgeStyle;entryX=1;entryY=0.5;entryDx=0;entryDy=0;exitX=0.5;exitY=0;exitDx=0;exitDy=0;" edge="1" parent="1" source="KaJSE7OLxL7kk_35rbbq-90" target="KaJSE7OLxL7kk_35rbbq-101">
          <mxGeometry width="160" relative="1" as="geometry">
            <mxPoint x="640" y="530" as="sourcePoint" />
            <mxPoint x="205" y="410" as="targetPoint" />
            <Array as="points">
              <mxPoint x="658" y="515" />
            </Array>
          </mxGeometry>
        </mxCell>
        <mxCell id="KaJSE7OLxL7kk_35rbbq-171" value="" style="endArrow=diamondThin;endFill=1;endSize=15;html=1;rounded=0;edgeStyle=orthogonalEdgeStyle;entryX=1;entryY=0.5;entryDx=0;entryDy=0;exitX=0.5;exitY=0;exitDx=0;exitDy=0;" edge="1" parent="1" source="KaJSE7OLxL7kk_35rbbq-94" target="KaJSE7OLxL7kk_35rbbq-101">
          <mxGeometry width="160" relative="1" as="geometry">
            <mxPoint x="655" y="545" as="sourcePoint" />
            <mxPoint x="340" y="525" as="targetPoint" />
            <Array as="points">
              <mxPoint x="575" y="515" />
            </Array>
          </mxGeometry>
        </mxCell>
        <mxCell id="KaJSE7OLxL7kk_35rbbq-175" value="" style="endArrow=diamondThin;endFill=1;endSize=15;html=1;rounded=0;edgeStyle=orthogonalEdgeStyle;entryX=1;entryY=0.5;entryDx=0;entryDy=0;exitX=0.5;exitY=0;exitDx=0;exitDy=0;" edge="1" parent="1" source="KaJSE7OLxL7kk_35rbbq-92" target="KaJSE7OLxL7kk_35rbbq-101">
          <mxGeometry width="160" relative="1" as="geometry">
            <mxPoint x="490" y="530" as="sourcePoint" />
            <mxPoint x="330" y="525" as="targetPoint" />
            <Array as="points">
              <mxPoint x="487" y="515" />
            </Array>
          </mxGeometry>
        </mxCell>
        <mxCell id="KaJSE7OLxL7kk_35rbbq-176" value="" style="endArrow=diamondThin;endFill=1;endSize=15;html=1;rounded=0;edgeStyle=orthogonalEdgeStyle;entryX=1;entryY=0.5;entryDx=0;entryDy=0;exitX=0.5;exitY=0;exitDx=0;exitDy=0;" edge="1" parent="1" source="KaJSE7OLxL7kk_35rbbq-93" target="KaJSE7OLxL7kk_35rbbq-101">
          <mxGeometry width="160" relative="1" as="geometry">
            <mxPoint x="495" y="545" as="sourcePoint" />
            <mxPoint x="330" y="525" as="targetPoint" />
            <Array as="points">
              <mxPoint x="390" y="515" />
            </Array>
          </mxGeometry>
        </mxCell>
        <mxCell id="KaJSE7OLxL7kk_35rbbq-178" value="" style="endArrow=diamondThin;endFill=1;endSize=15;html=1;rounded=0;edgeStyle=orthogonalEdgeStyle;entryX=1;entryY=0.5;entryDx=0;entryDy=0;exitX=0.5;exitY=1;exitDx=0;exitDy=0;" edge="1" parent="1" source="KaJSE7OLxL7kk_35rbbq-91" target="KaJSE7OLxL7kk_35rbbq-101">
          <mxGeometry width="160" relative="1" as="geometry">
            <mxPoint x="655" y="545" as="sourcePoint" />
            <mxPoint x="330" y="525" as="targetPoint" />
            <Array as="points">
              <mxPoint x="658" y="515" />
            </Array>
          </mxGeometry>
        </mxCell>
        <mxCell id="KaJSE7OLxL7kk_35rbbq-179" value="" style="endArrow=diamondThin;endFill=1;endSize=15;html=1;rounded=0;edgeStyle=orthogonalEdgeStyle;entryX=1;entryY=0.5;entryDx=0;entryDy=0;exitX=0.5;exitY=1;exitDx=0;exitDy=0;" edge="1" parent="1" source="KaJSE7OLxL7kk_35rbbq-95" target="KaJSE7OLxL7kk_35rbbq-101">
          <mxGeometry width="160" relative="1" as="geometry">
            <mxPoint x="668" y="500" as="sourcePoint" />
            <mxPoint x="330" y="525" as="targetPoint" />
            <Array as="points">
              <mxPoint x="575" y="515" />
            </Array>
          </mxGeometry>
        </mxCell>
        <mxCell id="KaJSE7OLxL7kk_35rbbq-180" value="" style="endArrow=diamondThin;endFill=1;endSize=15;html=1;rounded=0;edgeStyle=orthogonalEdgeStyle;entryX=1;entryY=0.5;entryDx=0;entryDy=0;exitX=0.5;exitY=1;exitDx=0;exitDy=0;" edge="1" parent="1" source="KaJSE7OLxL7kk_35rbbq-104" target="KaJSE7OLxL7kk_35rbbq-101">
          <mxGeometry width="160" relative="1" as="geometry">
            <mxPoint x="585" y="500" as="sourcePoint" />
            <mxPoint x="330" y="525" as="targetPoint" />
            <Array as="points">
              <mxPoint x="487" y="515" />
            </Array>
          </mxGeometry>
        </mxCell>
        <mxCell id="KaJSE7OLxL7kk_35rbbq-181" value="" style="endArrow=diamondThin;endFill=1;endSize=15;html=1;rounded=0;edgeStyle=orthogonalEdgeStyle;entryX=1;entryY=0.5;entryDx=0;entryDy=0;exitX=0.5;exitY=1;exitDx=0;exitDy=0;" edge="1" parent="1" source="KaJSE7OLxL7kk_35rbbq-103" target="KaJSE7OLxL7kk_35rbbq-101">
          <mxGeometry width="160" relative="1" as="geometry">
            <mxPoint x="497" y="500" as="sourcePoint" />
            <mxPoint x="330" y="525" as="targetPoint" />
            <Array as="points">
              <mxPoint x="390" y="515" />
            </Array>
          </mxGeometry>
        </mxCell>
        <mxCell id="KaJSE7OLxL7kk_35rbbq-182" value="" style="endArrow=diamondThin;endFill=1;endSize=15;html=1;rounded=0;edgeStyle=orthogonalEdgeStyle;entryX=0.5;entryY=1;entryDx=0;entryDy=0;exitX=0.5;exitY=0;exitDx=0;exitDy=0;" edge="1" parent="1" source="KaJSE7OLxL7kk_35rbbq-137" target="KaJSE7OLxL7kk_35rbbq-101">
          <mxGeometry width="160" relative="1" as="geometry">
            <mxPoint x="497" y="500" as="sourcePoint" />
            <mxPoint x="330" y="525" as="targetPoint" />
            <Array as="points">
              <mxPoint x="225" y="610" />
              <mxPoint x="265" y="610" />
            </Array>
          </mxGeometry>
        </mxCell>
        <mxCell id="KaJSE7OLxL7kk_35rbbq-183" value="" style="endArrow=diamondThin;endFill=1;endSize=15;html=1;rounded=0;edgeStyle=orthogonalEdgeStyle;entryX=0.5;entryY=1;entryDx=0;entryDy=0;exitX=0.5;exitY=0;exitDx=0;exitDy=0;" edge="1" parent="1" source="KaJSE7OLxL7kk_35rbbq-156" target="KaJSE7OLxL7kk_35rbbq-101">
          <mxGeometry width="160" relative="1" as="geometry">
            <mxPoint x="235" y="612" as="sourcePoint" />
            <mxPoint x="275" y="550" as="targetPoint" />
            <Array as="points">
              <mxPoint x="364" y="610" />
              <mxPoint x="265" y="610" />
            </Array>
          </mxGeometry>
        </mxCell>
        <mxCell id="KaJSE7OLxL7kk_35rbbq-184" value="" style="endArrow=diamondThin;endFill=1;endSize=15;html=1;rounded=0;edgeStyle=orthogonalEdgeStyle;entryX=0.5;entryY=1;entryDx=0;entryDy=0;exitX=0.5;exitY=0;exitDx=0;exitDy=0;" edge="1" parent="1" source="KaJSE7OLxL7kk_35rbbq-118" target="KaJSE7OLxL7kk_35rbbq-101">
          <mxGeometry width="160" relative="1" as="geometry">
            <mxPoint x="374" y="612" as="sourcePoint" />
            <mxPoint x="275" y="550" as="targetPoint" />
            <Array as="points">
              <mxPoint x="504" y="610" />
              <mxPoint x="265" y="610" />
            </Array>
          </mxGeometry>
        </mxCell>
        <mxCell id="KaJSE7OLxL7kk_35rbbq-185" value="" style="endArrow=diamondThin;endFill=1;endSize=15;html=1;rounded=0;edgeStyle=orthogonalEdgeStyle;entryX=0.5;entryY=1;entryDx=0;entryDy=0;exitX=0.75;exitY=0;exitDx=0;exitDy=0;" edge="1" parent="1" source="KaJSE7OLxL7kk_35rbbq-60" target="KaJSE7OLxL7kk_35rbbq-101">
          <mxGeometry width="160" relative="1" as="geometry">
            <mxPoint x="660" y="590" as="sourcePoint" />
            <mxPoint x="410" y="540" as="targetPoint" />
            <Array as="points">
              <mxPoint x="671" y="610" />
              <mxPoint x="265" y="610" />
            </Array>
          </mxGeometry>
        </mxCell>
        <mxCell id="KaJSE7OLxL7kk_35rbbq-186" value="bs" style="html=1;whiteSpace=wrap;rounded=1;fillColor=#fff2cc;strokeColor=#d6b656;flipV=1;flipH=1;" vertex="1" parent="1">
          <mxGeometry x="130" y="561" width="70" height="30" as="geometry" />
        </mxCell>
        <mxCell id="KaJSE7OLxL7kk_35rbbq-187" value="" style="endArrow=diamondThin;endFill=1;endSize=15;html=1;rounded=0;entryX=0.25;entryY=1;entryDx=0;entryDy=0;exitX=0;exitY=0.5;exitDx=0;exitDy=0;edgeStyle=orthogonalEdgeStyle;" edge="1" parent="1" source="KaJSE7OLxL7kk_35rbbq-186" target="KaJSE7OLxL7kk_35rbbq-3">
          <mxGeometry width="160" relative="1" as="geometry">
            <mxPoint x="115" y="1000" as="sourcePoint" />
            <mxPoint x="117" y="553" as="targetPoint" />
          </mxGeometry>
        </mxCell>
        <mxCell id="KaJSE7OLxL7kk_35rbbq-188" value="itertools" style="html=1;whiteSpace=wrap;rounded=1;fillColor=#fff2cc;strokeColor=#d6b656;flipV=1;flipH=1;" vertex="1" parent="1">
          <mxGeometry x="130" y="600" width="70" height="30" as="geometry" />
        </mxCell>
        <mxCell id="KaJSE7OLxL7kk_35rbbq-189" value="" style="endArrow=diamondThin;endFill=1;endSize=15;html=1;rounded=0;entryX=0.25;entryY=1;entryDx=0;entryDy=0;exitX=0;exitY=0.5;exitDx=0;exitDy=0;edgeStyle=orthogonalEdgeStyle;" edge="1" parent="1" source="KaJSE7OLxL7kk_35rbbq-188" target="KaJSE7OLxL7kk_35rbbq-3">
          <mxGeometry width="160" relative="1" as="geometry">
            <mxPoint x="140" y="586" as="sourcePoint" />
            <mxPoint x="118" y="550" as="targetPoint" />
          </mxGeometry>
        </mxCell>
        <mxCell id="KaJSE7OLxL7kk_35rbbq-190" value="" style="endArrow=open;endSize=12;dashed=1;html=1;rounded=0;entryX=0.221;entryY=0.979;entryDx=0;entryDy=0;entryPerimeter=0;" edge="1" parent="1" target="KaJSE7OLxL7kk_35rbbq-101">
          <mxGeometry width="160" relative="1" as="geometry">
            <mxPoint x="200" y="576" as="sourcePoint" />
            <mxPoint x="220" y="575.75" as="targetPoint" />
            <Array as="points">
              <mxPoint x="234" y="576" />
            </Array>
            <mxPoint as="offset" />
          </mxGeometry>
        </mxCell>
      </root>
    </mxGraphModel>
  </diagram>
</mxfile>
